<?xml version="1.0" standalone="no"?>
<!DOCTYPE svg PUBLIC "-//W3C//DTD SVG 20010904//EN"
 "http://www.w3.org/TR/2001/REC-SVG-20010904/DTD/svg10.dtd">
<svg version="1.0" xmlns="http://www.w3.org/2000/svg"
 width="2048.000000pt" height="2048.000000pt" viewBox="0 0 2048.000000 2048.000000"
 preserveAspectRatio="xMidYMid meet">

<g transform="translate(0.000000,2048.000000) scale(0.100000,-0.100000)"
fill="#000000" stroke="none">
<path d="M0 10240 l0 -10240 10240 0 10240 0 0 10240 0 10240 -10240 0 -10240
0 0 -10240z m16742 696 c117 -23 243 -81 328 -152 l29 -25 -41 -64 c-23 -36
-45 -65 -50 -65 -4 0 -30 16 -56 35 -233 167 -560 166 -660 -4 -21 -36 -26
-57 -26 -110 1 -148 63 -192 388 -282 347 -95 455 -177 488 -368 22 -128 -20
-258 -112 -351 -88 -87 -199 -127 -375 -136 -220 -12 -431 59 -584 195 l-52
46 51 68 52 68 37 -34 c236 -213 606 -250 755 -76 53 63 66 120 45 203 -27
106 -102 150 -384 224 -104 28 -215 60 -245 71 -107 40 -204 138 -232 234 -20
69 -15 203 11 270 46 116 170 218 309 251 75 19 232 19 324 2z m-10740 -124
c31 -70 100 -221 153 -337 54 -115 132 -289 175 -385 218 -491 290 -654 290
-657 0 -2 -41 -2 -91 -1 l-92 3 -53 115 c-29 63 -65 147 -81 186 l-28 71 -185
6 c-102 4 -288 7 -415 7 l-230 -1 -81 -192 -82 -192 -91 -3 c-50 -1 -91 0 -91
3 0 4 22 57 49 118 27 62 92 209 144 327 99 225 204 458 289 645 28 61 70 153
93 205 24 52 54 121 69 153 l26 57 87 0 88 0 57 -128z m-2962 38 l0 -80 -257
-2 -258 -3 -3 -667 -2 -668 -85 0 -85 0 -2 668 -3 667 -262 3 -263 2 0 80 0
80 610 0 610 0 0 -80z m1318 65 c271 -64 419 -330 335 -600 -23 -73 -57 -126
-116 -183 -60 -56 -107 -83 -190 -107 l-57 -17 19 -26 c11 -15 105 -142 210
-282 105 -140 191 -258 191 -262 0 -5 -46 -8 -102 -8 l-103 1 -82 105 c-45 57
-140 183 -210 279 l-128 175 -207 0 -208 0 0 -280 0 -280 -85 0 -85 0 0 750 0
750 378 0 c297 0 390 -3 440 -15z m3427 -5 c139 -30 279 -105 375 -200 62 -61
86 -93 123 -170 69 -139 82 -199 81 -365 0 -129 -3 -147 -30 -225 -43 -121
-106 -224 -189 -305 -86 -84 -157 -128 -267 -166 -121 -41 -208 -49 -524 -49
l-284 0 0 750 0 750 313 0 c271 0 324 -3 402 -20z m2197 -60 l-4 -80 -449 0
-449 0 0 -250 0 -250 415 0 415 0 0 -80 0 -80 -415 0 -415 0 0 -261 0 -261 38
3 c20 1 227 1 460 0 l422 -1 0 -80 0 -80 -550 0 -550 0 0 750 0 750 543 0 542
0 -3 -80z m2022 65 c33 -9 90 -32 128 -52 325 -171 316 -694 -15 -856 -111
-54 -151 -60 -437 -64 l-265 -5 0 -251 0 -252 -87 -3 -88 -3 0 751 0 750 353
0 c284 0 364 -3 411 -15z m1019 -467 c3 -412 6 -493 21 -547 48 -183 169 -295
348 -323 233 -36 434 99 504 337 15 53 18 120 21 538 l4 477 85 0 85 0 -3
-492 c-4 -469 -5 -497 -26 -571 -36 -130 -76 -202 -161 -287 -121 -122 -244
-170 -441 -170 -123 0 -195 16 -296 65 -89 43 -149 96 -208 183 -56 82 -93
182 -104 288 -5 43 -7 283 -4 532 l5 452 83 0 82 0 5 -482z m1857 -183 l0
-665 418 -2 417 -3 3 -82 3 -83 -511 0 -510 0 0 750 0 750 90 0 90 0 0 -665z
m3850 585 l0 -80 -450 0 -450 0 0 -250 0 -250 415 0 415 0 0 -80 0 -80 -415 0
-415 0 0 -255 0 -255 368 -2 c404 -3 508 -4 535 -7 15 -1 17 -12 17 -81 l0
-80 -550 0 -550 0 0 750 0 750 540 0 540 0 0 -80z m816 -9521 c146 -27 256
-136 283 -282 34 -183 -94 -362 -283 -396 -77 -14 -295 -14 -371 0 -147 27
-257 136 -284 282 -32 177 89 355 269 393 70 16 308 17 386 3z"/>
<path d="M5822 10669 c-16 -35 -50 -109 -74 -164 -56 -123 -203 -460 -217
-497 l-11 -28 335 0 335 0 -9 23 c-40 102 -311 710 -322 721 -5 6 -20 -17 -37
-55z"/>
<path d="M3710 10459 l0 -310 288 3 c268 3 291 5 342 26 73 29 119 69 155 133
28 50 30 62 30 154 0 112 -15 153 -77 211 -84 80 -156 94 -490 94 l-248 0 0
-311z"/>
<path d="M7252 10763 c-9 -7 -12 -132 -10 -589 l3 -579 215 1 c240 0 291 9
416 68 308 145 409 564 207 859 -71 106 -190 183 -338 222 -69 18 -472 32
-493 18z"/>
<path d="M11414 10755 c-4 -9 -4 -139 -1 -288 4 -150 7 -293 7 -319 l0 -48
228 0 c229 0 276 6 363 43 56 23 115 83 146 145 24 50 27 69 28 157 0 93 -2
104 -30 154 -17 31 -51 71 -78 93 -81 64 -119 71 -404 76 -230 3 -254 2 -259
-13z"/>
<path d="M19462 1178 c-30 -30 -3 -82 40 -76 29 4 47 50 28 72 -15 19 -51 21
-68 4z"/>
<path d="M19225 1076 c-48 -21 -59 -40 -35 -61 18 -17 21 -17 56 0 28 13 42
15 60 6 42 -19 30 -39 -19 -34 -105 12 -165 -80 -97 -149 28 -27 35 -29 78
-24 26 3 68 5 95 5 l47 0 -1 83 c0 108 -14 148 -59 170 -41 21 -83 22 -125 4z
m100 -157 c10 -16 -25 -49 -52 -49 -25 0 -39 21 -29 45 6 17 71 21 81 4z"/>
<path d="M19460 950 l0 -130 35 0 35 0 0 130 0 130 -35 0 -35 0 0 -130z"/>
</g>
</svg>
